{"title":"Orange is the new black S04E13 720p WEBRip x264-TheRival","uid":14974704,"size":1312681175,"categoryP":"video","categoryS":"hd___tv_shows","magnet":"?xt=urn:btih:fd8b365ce8d4e3769b7699eef6e074efd9e0f30c&amp;dn=Orange+is+the+new+black+S04E13+720p+WEBRip+x264-TheRival&amp;tr=udp%3A%2F%2Ftracker.leechers-paradise.org%3A6969&amp;tr=udp%3A%2F%2Fzer0day.ch%3A1337&amp;tr=udp%3A%2F%2Fopen.demonii.com%3A1337&amp;tr=udp%3A%2F%2Ftracker.coppersurfer.tk%3A6969&amp;tr=udp%3A%2F%2Fexodus.desync.com%3A6969","seeders":89,"leechers":7,"uploader":"TheRival","files":2,"time":1466229650,"description":"http://extraimago.com/image/aGOp \nhttp://extraimago.com/image/aGOr \nhttp://extraimago.com/image/aGOG\r\n\r\nVideo\r\nID : 1\r\nFormat : AVC\r\nFormat/Info : Advanced Video Codec\r\nFormat profile :   \r\nFormat settings, CABAC : Yes\r\nFormat settings, ReFrames : 2 frames\r\nFormat settings, GOP : M=1, N=24\r\nCodec ID : avc1\r\nCodec ID/Info : Advanced Video Coding\r\nDuration : 1h 16mn\r\nBit rate mode : Variable\r\nBit rate : 2 151 Kbps\r\nMaximum bit rate : 3 315 Kbps\r\nWidth : 1 280 pixels\r\nHeight : 720 pixels\r\nDisplay aspect ratio : 16:9\r\nFrame rate mode : Constant\r\nFrame rate : 23.976 (24000/1001) fps\r\nColor space : YUV\r\nChroma subsampling : 4:2:0\r\nBit depth : 8 bits\r\nScan type : Progressive\r\nBits/(Pixel*Frame) : 0.097\r\nStream size : 1.15 GiB (94%)\r\nEncoded date : UTC 2016-06-18 03:29:34\r\nTagged date : UTC 2016-06-18 03:39:57\r\nColor primaries : BT.709\r\nTransfer characteristics : BT.709\r\nMatrix coefficients : BT.709\r\n\r\nAudio\r\nID : 2\r\nFormat : AAC\r\nFormat/Info : Advanced Audio Codec\r\nFormat profile : LC\r\nCodec ID : 40\r\nDuration : 1h 16mn\r\nBit rate mode : Variable\r\nBit rate : 128 Kbps\r\nMaximum bit rate : 131 Kbps\r\nChannel(s) : 2 channels\r\nChannel positions : Front: L R\r\nSampling rate : 48.0 KHz\r\nFrame rate : 46.875 fps (1024 spf)\r\nCompression mode : Lossy\r\nStream size : 70.2 MiB (6%)\r\nTitle : English (aac 2.0)\r\nLanguage : English\r\nDefault : Yes\r\nAlternate group : 1","torrent":{"xt":"urn:btih:fd8b365ce8d4e3769b7699eef6e074efd9e0f30c","amp;dn":"Orange+is+the+new+black+S04E13+720p+WEBRip+x264-TheRival","amp;tr":["udp%3A%2F%2Ftracker.leechers-paradise.org%3A6969","udp%3A%2F%2Fzer0day.ch%3A1337","udp%3A%2F%2Fopen.demonii.com%3A1337","udp%3A%2F%2Ftracker.coppersurfer.tk%3A6969","udp%3A%2F%2Fexodus.desync.com%3A6969"],"infoHash":"fd8b365ce8d4e3769b7699eef6e074efd9e0f30c","infoHashBuffer":{"type":"Buffer","data":[253,139,54,92,232,212,227,118,155,118,153,238,246,224,116,239,217,224,243,12]},"announce":[],"urlList":[]}}